# xmcd CD database file
# Copyright (C) 1993-1998 Ti Kan
# 
# Track frame offsets:
#	150
#	12650
#	24672
#	40525
#	52339
#	63172
#	75037
#	84954
#	98655
#	112672
#	122460
#	132635
#	144790
#	154627
#
# Disc length: 2366 seconds
# 
# Revision: 1
# Processed by: cddbd v1.4b41PL1 Copyright (c) Steve Scherf et al.
# Submitted via: DiscPlay 4.0.4
# 
DISCID=9d093c0e
DTITLE=V rios - 30 anos de jovem guarda - 2
DYEAR=1900
DGENRE=
TTITLE0=Devolva-me - Lilian and Ed Wilson
TTITLE1=O bom - Eduardo Ara jo
TTITLE2=Eu te darei o c u - The fevers
TTITLE3=Meu bem - Ronnie Von
TTITLE4=Fa a alguma coisa pelo nosso amor - Os Vips
TTITLE5=Minha fama de mau - Erasmo Carlos
TTITLE6=Meu primeiro amor - Renato e seus blue caps
TTITLE7=Eu sou terrivel - Wanderl a
TTITLE8=Coruja -  Deny and Dino
TTITLE9=Est pido cupido - Cleide Alves
TTITLE10=Festa do Bolinha - Trio Esperan a
TTITLE11=A pobreza - Leno
TTITLE12=Biquini de bolinha  amarelinha t o pequeninhinho - Ed Wilson
TTITLE13=Quando - Vanusa
EXTD=
EXTT0=
EXTT1=
EXTT2=
EXTT3=
EXTT4=
EXTT5=
EXTT6=
EXTT7=
EXTT8=
EXTT9=
EXTT10=
EXTT11=
EXTT12=
EXTT13=
PLAYORDER=
